<svg version="1.1" id="Layer_1" xmlns="http://www.w3.org/2000/svg" xmlns:xlink="http://www.w3.org/1999/xlink" x="0px" y="0px"
	 width="100%" viewBox="0 0 1200 1200" enable-background="new 0 0 1200 1200" xml:space="preserve">
<path fill="#000000" opacity="1.000000" stroke="none" 
	d="
M699.000000,1201.000000 
	C466.000000,1201.000000 233.500000,1201.000000 1.000000,1201.000000 
	C1.000000,801.000000 1.000000,401.000000 1.000000,1.000000 
	C401.000000,1.000000 801.000000,1.000000 1201.000000,1.000000 
	C1201.000000,401.000000 1201.000000,801.000000 1201.000000,1201.000000 
	C1033.833374,1201.000000 866.666687,1201.000000 699.000000,1201.000000 
M235.500000,463.000000 
	C228.334824,463.000000 221.169479,462.967682 214.004532,463.007935 
	C204.408813,463.061798 197.019882,470.275421 197.016479,479.783447 
	C196.987671,560.600342 196.987381,641.417175 197.016861,722.234070 
	C197.020340,731.737244 204.417236,738.986694 214.022034,738.989014 
	C294.672272,739.008240 375.322540,739.008057 455.972778,738.989319 
	C465.470245,738.987061 472.991791,731.328552 472.993225,721.718079 
	C473.005157,641.567749 472.975403,561.417358 473.027649,481.267059 
	C473.035126,469.797028 464.131500,462.851074 454.455261,462.880341 
	C381.804047,463.100006 309.151886,463.000000 235.500000,463.000000 
M579.000000,700.501953 
	C579.087036,691.457153 576.798584,681.795166 586.711548,675.620605 
	C589.349976,673.977112 590.269897,673.324829 592.281372,676.479492 
	C601.982300,691.693481 612.128357,706.623230 621.886902,721.801392 
	C623.456787,724.243042 625.058838,725.116455 627.773499,725.039490 
	C632.683655,724.900208 637.600586,725.000000 642.913574,725.000000 
	C628.391052,703.551514 614.177185,682.558899 600.069580,661.723267 
	C613.946838,647.227478 627.505249,633.064819 641.927307,618.000000 
	C636.589233,618.000000 632.651917,618.226135 628.753113,617.935242 
	C624.984314,617.654053 622.315674,618.864136 619.715637,621.667358 
	C607.796265,634.518005 595.666077,647.173218 583.589600,659.877808 
	C582.435791,661.091675 581.130615,662.161621 578.883545,664.230103 
	C578.883545,647.869812 578.883545,633.011719 578.883545,618.313721 
	C573.630188,618.313721 568.893799,618.313721 564.289551,618.313721 
	C564.289551,654.015564 564.289551,689.402954 564.289551,724.709717 
	C569.320984,724.709717 574.058105,724.709717 579.000000,724.709717 
	C579.000000,716.780884 579.000000,709.140991 579.000000,700.501953 
M679.508179,688.000000 
	C693.928589,688.000000 708.348999,688.000000 722.999939,688.000000 
	C722.999939,683.310059 723.391968,679.126099 722.918518,675.042480 
	C721.924683,666.468994 719.680542,658.306885 713.363586,651.833435 
	C705.919067,644.204468 696.667542,642.634705 686.499756,642.915894 
	C672.458435,643.304016 662.382690,649.782471 656.076721,661.968811 
	C650.330627,673.073303 649.573853,685.159302 652.171936,697.119324 
	C655.468384,712.294373 664.105896,722.949524 680.249268,726.063782 
	C691.567383,728.247131 702.571228,726.944702 713.554382,723.866333 
	C718.575684,722.458862 721.011597,719.947754 720.065430,714.519043 
	C719.671448,712.258484 720.000000,709.872009 720.000000,707.269226 
	C718.048462,707.936951 716.120361,708.289795 714.507080,709.200378 
	C706.334473,713.813110 697.592773,715.664246 688.278564,714.997742 
	C675.043518,714.050659 664.549683,703.370850 666.611145,688.000000 
	C670.556885,688.000000 674.534180,688.000000 679.508179,688.000000 
M935.496399,722.045288 
	C947.642090,729.055542 960.557678,728.323792 973.397583,725.107178 
	C989.503540,721.072449 985.482300,723.443237 985.956482,709.033081 
	C985.966187,708.739624 985.713074,708.437561 985.399963,707.722229 
	C983.779541,708.207825 981.957153,708.424072 980.477112,709.252319 
	C972.284607,713.836426 963.538513,715.687256 954.215210,714.999817 
	C940.734863,714.005798 930.417664,702.884338 932.710510,687.767456 
	C951.382629,687.767456 970.118347,687.767456 989.445679,687.767456 
	C988.940247,681.114319 989.103577,674.771179 987.852356,668.720459 
	C985.820190,658.893188 980.948120,650.826904 971.429016,646.001526 
	C964.611633,642.545471 957.502808,642.926880 950.350708,643.034668 
	C942.615540,643.151306 935.925964,646.228516 930.250732,651.308838 
	C922.670593,658.094360 919.058228,666.700439 917.846680,676.862610 
	C915.684509,694.999207 918.699158,710.828491 935.496399,722.045288 
M762.926270,523.610046 
	C766.640625,517.162964 772.280212,514.283813 779.603394,515.044922 
	C785.107727,515.617004 789.582947,518.015747 791.219421,523.772827 
	C792.047668,526.686829 792.891113,529.725403 792.921631,532.715881 
	C793.086975,548.879517 792.993164,565.045837 793.013306,581.211182 
	C793.014893,582.465149 793.205566,583.718872 793.280396,584.632446 
	C798.140137,584.632446 802.550781,584.632446 807.000000,584.632446 
	C807.000000,565.433777 807.074707,546.601929 806.923523,527.771973 
	C806.899414,524.765259 805.963440,521.743408 805.276855,518.768311 
	C801.221680,501.197327 778.476624,499.263641 766.768372,506.830872 
	C764.111938,508.547821 761.914368,510.974579 758.864319,513.633667 
	C758.864319,499.877319 758.864319,487.104614 758.864319,474.229980 
	C754.139038,474.229980 749.733948,474.229980 745.231201,474.229980 
	C745.231201,511.197693 745.231201,547.934998 745.231201,584.765259 
	C749.871033,584.765259 754.276123,584.765259 759.000000,584.765259 
	C759.000000,569.736145 758.708923,554.930969 759.153564,540.147949 
	C759.315002,534.779053 761.232727,529.463074 762.926270,523.610046 
M715.050720,516.517578 
	C711.634583,511.169342 707.327698,506.512482 701.046570,505.131470 
	C694.904358,503.781006 688.496338,503.168091 682.196777,503.109314 
	C671.299988,503.007690 663.072021,508.568024 658.142761,517.865723 
	C650.130493,532.978760 650.225769,549.062256 655.057617,565.114990 
	C658.230957,575.657776 664.825439,583.492249 676.016357,585.896301 
	C681.240540,587.018555 686.784424,587.014099 692.173889,586.928345 
	C702.647156,586.761597 710.944275,581.647461 715.519836,572.658569 
	C724.827026,554.374268 724.461304,535.603149 715.050720,516.517578 
M1033.489868,719.993835 
	C1033.991089,721.505615 1035.315063,723.358826 1034.853516,724.471069 
	C1032.651855,729.776611 1030.523193,735.281799 1027.214722,739.887146 
	C1025.569458,742.177307 1021.546326,743.105652 1018.408875,743.869934 
	C1015.800598,744.505310 1012.914490,744.000000 1010.308716,744.000000 
	C1010.308716,748.359009 1010.308716,752.098816 1010.308716,756.000000 
	C1013.931641,756.000000 1017.267761,755.760254 1020.558838,756.043274 
	C1032.057251,757.032104 1039.240723,751.077148 1043.211182,741.201599 
	C1053.361328,715.955017 1063.096680,690.541443 1072.957397,665.178833 
	C1075.492920,658.657471 1077.878540,652.077820 1080.529663,645.000000 
	C1076.319702,645.000000 1072.826050,645.183838 1069.361206,644.947144 
	C1066.043457,644.720520 1064.947510,645.976501 1063.796143,649.218567 
	C1057.474854,667.020142 1050.662109,684.647278 1043.984253,702.321533 
	C1043.749023,702.943848 1043.157837,703.431702 1042.732666,703.982300 
	C1042.151855,703.420471 1041.291138,702.965088 1041.031128,702.281311 
	C1033.811890,683.297913 1026.653687,664.291321 1019.455383,645.209106 
	C1014.542847,645.209106 1009.502625,645.209106 1004.181641,645.209106 
	C1009.195068,658.007935 1014.119812,670.521851 1018.999146,683.053528 
	C1023.702881,695.134155 1028.359741,707.233032 1033.489868,719.993835 
M885.524902,506.955414 
	C879.502136,501.179535 871.867249,502.646210 864.912903,503.228790 
	C857.794067,503.825134 851.987488,508.120605 847.560547,514.665833 
	C846.249512,504.955109 846.249451,504.945190 836.926514,505.011810 
	C835.664368,505.020813 834.403320,505.188782 833.296387,505.271576 
	C833.296387,532.020569 833.296387,558.412842 833.296387,584.702698 
	C838.334656,584.702698 843.071899,584.702698 848.000000,584.702698 
	C848.000000,569.269958 847.942444,554.133362 848.045898,538.997803 
	C848.067993,535.764954 848.342407,532.458069 849.078857,529.320984 
	C850.813843,521.930603 855.547913,516.830200 862.884155,515.216858 
	C868.515442,513.978394 874.705627,515.144714 877.626648,520.502869 
	C880.139343,525.111877 881.606384,530.790222 881.810364,536.062500 
	C882.363464,550.364014 882.000000,564.700989 882.000000,579.023865 
	C882.000000,580.953064 882.000000,582.882324 882.000000,584.703735 
	C886.999390,584.703735 891.404053,584.703735 895.999451,584.703735 
	C895.999451,566.107788 896.429260,547.792725 895.806213,529.513550 
	C895.522644,521.194458 893.550476,512.776306 885.524902,506.955414 
M569.552063,584.000854 
	C579.283936,588.143433 589.616089,587.520813 599.658081,586.684509 
	C604.566589,586.275757 609.832458,583.487305 613.838501,580.366455 
	C621.140808,574.677673 622.880737,566.032410 622.959106,557.207947 
	C623.102539,541.047546 623.000000,524.884949 623.000000,508.723236 
	C623.000000,498.606964 623.000000,488.490692 623.000000,478.206360 
	C608.850220,478.206360 595.114136,478.206360 581.207825,478.206360 
	C581.207825,482.484131 581.207825,486.554504 581.207825,491.021942 
	C590.149292,491.021942 598.894287,491.021942 607.001953,491.021942 
	C607.001953,513.950684 607.248474,536.479980 606.904358,559.000244 
	C606.714661,571.415833 598.707336,576.013733 585.490967,574.272522 
	C576.489746,573.086548 569.308289,568.669250 562.000000,562.975525 
	C562.000000,566.953430 562.432739,570.460693 561.903687,573.816345 
	C560.996338,579.571289 563.248352,582.735779 569.552063,584.000854 
M894.000000,699.687927 
	C893.894714,690.868286 890.026001,684.841919 881.590759,682.054626 
	C874.156799,679.598083 866.363586,678.238647 858.895020,675.871216 
	C856.023254,674.960876 852.660217,673.196594 851.161682,670.796875 
	C846.128906,662.737610 852.717285,655.783691 860.940613,655.041565 
	C871.006104,654.133240 880.687195,655.578918 889.999878,661.717468 
	C889.999878,657.171692 890.244934,653.534790 889.876343,649.961182 
	C889.733887,648.580017 888.481140,646.642090 887.255493,646.149841 
	C877.227173,642.122192 866.572998,642.299561 856.185242,643.313171 
	C851.251587,643.794617 845.798340,646.492859 842.034546,649.827881 
	C834.557495,656.453308 833.353210,665.658875 836.148132,674.890015 
	C838.455261,682.509888 845.025146,685.964172 852.280945,687.982239 
	C858.608215,689.742004 865.067993,691.068787 871.306274,693.089905 
	C875.523682,694.456238 879.435303,696.957031 879.921326,701.957764 
	C880.408630,706.970093 877.841309,710.580139 873.479126,713.006042 
	C867.289795,716.448181 860.547852,715.538513 854.243591,714.464050 
	C847.751099,713.357544 841.558838,710.489136 835.149902,708.363403 
	C835.149902,713.068665 835.149902,717.861084 835.149902,722.470398 
	C845.750732,726.357605 856.523254,727.462280 867.566040,727.041443 
	C881.933594,726.493835 895.893372,716.900818 894.000000,699.687927 
M781.348206,707.877197 
	C780.565491,703.937378 779.135620,700.002686 779.104797,696.057007 
	C778.901733,670.070801 779.000000,644.082214 779.000000,618.094421 
	C779.000000,616.488159 779.000000,614.881897 779.000000,613.251648 
	C767.084778,613.251648 755.680969,613.251648 744.253113,613.251648 
	C744.253113,616.913147 744.253113,620.317627 744.253113,624.110596 
	C751.241760,624.110596 757.987549,624.110596 765.000000,624.110596 
	C765.000000,646.966614 764.942017,669.425415 765.045410,691.883484 
	C765.067993,696.787842 765.202087,701.776978 766.104187,706.572998 
	C767.627930,714.673401 771.362610,722.586182 779.642212,724.493286 
	C788.731628,726.586853 798.455200,725.927246 807.810181,726.462036 
	C807.810181,721.643616 807.810181,718.021240 807.810181,714.000000 
	C802.177246,714.000000 796.720093,713.872192 791.272034,714.040039 
	C786.844666,714.176392 783.689819,712.548157 781.348206,707.877197 
z"/>
<path fill="#FFFFFF" opacity="1.000000" stroke="none" 
	d="
M236.000000,463.000000 
	C309.151886,463.000000 381.804047,463.100006 454.455261,462.880341 
	C464.131500,462.851074 473.035126,469.797028 473.027649,481.267059 
	C472.975403,561.417358 473.005157,641.567749 472.993225,721.718079 
	C472.991791,731.328552 465.470245,738.987061 455.972778,738.989319 
	C375.322540,739.008057 294.672272,739.008240 214.022034,738.989014 
	C204.417236,738.986694 197.020340,731.737244 197.016861,722.234070 
	C196.987381,641.417175 196.987671,560.600342 197.016479,479.783447 
	C197.019882,470.275421 204.408813,463.061798 214.004532,463.007935 
	C221.169479,462.967682 228.334824,463.000000 236.000000,463.000000 
M209.000000,664.500000 
	C209.000000,682.662781 208.998062,700.825500 209.000961,718.988281 
	C209.002075,726.009033 209.962021,726.998169 216.817902,726.998413 
	C295.634674,727.000916 374.451477,727.000977 453.268250,726.998108 
	C459.916748,726.997864 460.997192,725.938843 460.997589,719.401978 
	C461.001526,655.748657 461.001587,592.095398 460.990112,528.442078 
	C460.989868,527.011353 460.841888,525.580566 460.770844,524.294922 
	C376.655243,524.294922 292.929016,524.294922 209.000000,524.294922 
	C209.000000,570.893005 209.000000,617.196472 209.000000,664.500000 
M210.709488,511.996063 
	C294.101776,511.996063 377.494049,511.996063 461.000000,511.996063 
	C461.000000,501.832703 461.004211,492.343170 460.998566,482.853638 
	C460.994476,475.967468 460.014404,475.001343 453.024872,475.001068 
	C405.371155,474.998993 357.717407,475.000000 310.063690,475.000000 
	C278.905487,475.000000 247.747284,474.996948 216.589081,475.002502 
	C210.059402,475.003662 209.007462,476.084351 209.001678,482.739807 
	C208.994598,490.904266 208.961380,499.069031 209.033600,507.232849 
	C209.047501,508.805054 209.495956,510.373413 210.709488,511.996063 
z"/>
<path fill="#FFFFFF" opacity="1.000000" stroke="none" 
	d="
M579.000000,701.001526 
	C579.000000,709.140991 579.000000,716.780884 579.000000,724.709717 
	C574.058105,724.709717 569.320984,724.709717 564.289551,724.709717 
	C564.289551,689.402954 564.289551,654.015564 564.289551,618.313721 
	C568.893799,618.313721 573.630188,618.313721 578.883545,618.313721 
	C578.883545,633.011719 578.883545,647.869812 578.883545,664.230103 
	C581.130615,662.161621 582.435791,661.091675 583.589600,659.877808 
	C595.666077,647.173218 607.796265,634.518005 619.715637,621.667358 
	C622.315674,618.864136 624.984314,617.654053 628.753113,617.935242 
	C632.651917,618.226135 636.589233,618.000000 641.927307,618.000000 
	C627.505249,633.064819 613.946838,647.227478 600.069580,661.723267 
	C614.177185,682.558899 628.391052,703.551514 642.913574,725.000000 
	C637.600586,725.000000 632.683655,724.900208 627.773499,725.039490 
	C625.058838,725.116455 623.456787,724.243042 621.886902,721.801392 
	C612.128357,706.623230 601.982300,691.693481 592.281372,676.479492 
	C590.269897,673.324829 589.349976,673.977112 586.711548,675.620605 
	C576.798584,681.795166 579.087036,691.457153 579.000000,701.001526 
z"/>
<path fill="#FFFFFF" opacity="1.000000" stroke="none" 
	d="
M679.009827,688.000000 
	C674.534180,688.000000 670.556885,688.000000 666.611145,688.000000 
	C664.549683,703.370850 675.043518,714.050659 688.278564,714.997742 
	C697.592773,715.664246 706.334473,713.813110 714.507080,709.200378 
	C716.120361,708.289795 718.048462,707.936951 720.000000,707.269226 
	C720.000000,709.872009 719.671448,712.258484 720.065430,714.519043 
	C721.011597,719.947754 718.575684,722.458862 713.554382,723.866333 
	C702.571228,726.944702 691.567383,728.247131 680.249268,726.063782 
	C664.105896,722.949524 655.468384,712.294373 652.171936,697.119324 
	C649.573853,685.159302 650.330627,673.073303 656.076721,661.968811 
	C662.382690,649.782471 672.458435,643.304016 686.499756,642.915894 
	C696.667542,642.634705 705.919067,644.204468 713.363586,651.833435 
	C719.680542,658.306885 721.924683,666.468994 722.918518,675.042480 
	C723.391968,679.126099 722.999939,683.310059 722.999939,688.000000 
	C708.348999,688.000000 693.928589,688.000000 679.009827,688.000000 
M693.496216,677.000000 
	C698.613220,677.000000 703.730225,677.000000 708.868835,677.000000 
	C707.851929,661.356995 700.396423,653.332275 684.872498,655.033386 
	C674.367126,656.184509 665.336060,669.510132 667.685425,677.000000 
	C675.918884,677.000000 684.208374,677.000000 693.496216,677.000000 
z"/>
<path fill="#FFFFFF" opacity="1.000000" stroke="none" 
	d="
M935.117554,722.010742 
	C918.699158,710.828491 915.684509,694.999207 917.846680,676.862610 
	C919.058228,666.700439 922.670593,658.094360 930.250732,651.308838 
	C935.925964,646.228516 942.615540,643.151306 950.350708,643.034668 
	C957.502808,642.926880 964.611633,642.545471 971.429016,646.001526 
	C980.948120,650.826904 985.820190,658.893188 987.852356,668.720459 
	C989.103577,674.771179 988.940247,681.114319 989.445679,687.767456 
	C970.118347,687.767456 951.382629,687.767456 932.710510,687.767456 
	C930.417664,702.884338 940.734863,714.005798 954.215210,714.999817 
	C963.538513,715.687256 972.284607,713.836426 980.477112,709.252319 
	C981.957153,708.424072 983.779541,708.207825 985.399963,707.722229 
	C985.713074,708.437561 985.966187,708.739624 985.956482,709.033081 
	C985.482300,723.443237 989.503540,721.072449 973.397583,725.107178 
	C960.557678,728.323792 947.642090,729.055542 935.117554,722.010742 
M938.635132,677.000000 
	C950.724121,677.000000 962.813171,677.000000 974.929993,677.000000 
	C973.848083,662.226013 967.066711,653.647766 951.778870,654.957947 
	C941.815735,655.811707 932.495361,666.699890 933.302734,677.000000 
	C934.732666,677.000000 936.202942,677.000000 938.635132,677.000000 
z"/>
<path fill="#FFFFFF" opacity="1.000000" stroke="none" 
	d="
M762.637695,523.866455 
	C761.232727,529.463074 759.315002,534.779053 759.153564,540.147949 
	C758.708923,554.930969 759.000000,569.736145 759.000000,584.765259 
	C754.276123,584.765259 749.871033,584.765259 745.231201,584.765259 
	C745.231201,547.934998 745.231201,511.197693 745.231201,474.229980 
	C749.733948,474.229980 754.139038,474.229980 758.864319,474.229980 
	C758.864319,487.104614 758.864319,499.877319 758.864319,513.633667 
	C761.914368,510.974579 764.111938,508.547821 766.768372,506.830872 
	C778.476624,499.263641 801.221680,501.197327 805.276855,518.768311 
	C805.963440,521.743408 806.899414,524.765259 806.923523,527.771973 
	C807.074707,546.601929 807.000000,565.433777 807.000000,584.632446 
	C802.550781,584.632446 798.140137,584.632446 793.280396,584.632446 
	C793.205566,583.718872 793.014893,582.465149 793.013306,581.211182 
	C792.993164,565.045837 793.086975,548.879517 792.921631,532.715881 
	C792.891113,529.725403 792.047668,526.686829 791.219421,523.772827 
	C789.582947,518.015747 785.107727,515.617004 779.603394,515.044922 
	C772.280212,514.283813 766.640625,517.162964 762.637695,523.866455 
z"/>
<path fill="#FFFFFF" opacity="1.000000" stroke="none" 
	d="
M715.313599,516.788330 
	C724.461304,535.603149 724.827026,554.374268 715.519836,572.658569 
	C710.944275,581.647461 702.647156,586.761597 692.173889,586.928345 
	C686.784424,587.014099 681.240540,587.018555 676.016357,585.896301 
	C664.825439,583.492249 658.230957,575.657776 655.057617,565.114990 
	C650.225769,549.062256 650.130493,532.978760 658.142761,517.865723 
	C663.072021,508.568024 671.299988,503.007690 682.196777,503.109314 
	C688.496338,503.168091 694.904358,503.781006 701.046570,505.131470 
	C707.327698,506.512482 711.634583,511.169342 715.313599,516.788330 
M704.999084,560.224976 
	C707.811584,549.934143 707.544983,539.643433 704.988525,529.355286 
	C703.191528,522.123840 696.578674,515.746704 690.118042,515.001709 
	C681.011597,513.951660 674.833191,517.079041 671.013184,525.270569 
	C665.377808,537.354858 665.569702,549.866394 669.810852,562.214294 
	C674.001099,574.414368 683.654602,577.162354 693.874695,573.916016 
	C699.997559,571.971130 702.510620,566.414490 704.999084,560.224976 
z"/>
<path fill="#FFFFFF" opacity="1.000000" stroke="none" 
	d="
M1033.263550,719.658875 
	C1028.359741,707.233032 1023.702881,695.134155 1018.999146,683.053528 
	C1014.119812,670.521851 1009.195068,658.007935 1004.181641,645.209106 
	C1009.502625,645.209106 1014.542847,645.209106 1019.455383,645.209106 
	C1026.653687,664.291321 1033.811890,683.297913 1041.031128,702.281311 
	C1041.291138,702.965088 1042.151855,703.420471 1042.732666,703.982300 
	C1043.157837,703.431702 1043.749023,702.943848 1043.984253,702.321533 
	C1050.662109,684.647278 1057.474854,667.020142 1063.796143,649.218567 
	C1064.947510,645.976501 1066.043457,644.720520 1069.361206,644.947144 
	C1072.826050,645.183838 1076.319702,645.000000 1080.529663,645.000000 
	C1077.878540,652.077820 1075.492920,658.657471 1072.957397,665.178833 
	C1063.096680,690.541443 1053.361328,715.955017 1043.211182,741.201599 
	C1039.240723,751.077148 1032.057251,757.032104 1020.558838,756.043274 
	C1017.267761,755.760254 1013.931641,756.000000 1010.308716,756.000000 
	C1010.308716,752.098816 1010.308716,748.359009 1010.308716,744.000000 
	C1012.914490,744.000000 1015.800598,744.505310 1018.408875,743.869934 
	C1021.546326,743.105652 1025.569458,742.177307 1027.214722,739.887146 
	C1030.523193,735.281799 1032.651855,729.776611 1034.853516,724.471069 
	C1035.315063,723.358826 1033.991089,721.505615 1033.263550,719.658875 
z"/>
<path fill="#FFFFFF" opacity="1.000000" stroke="none" 
	d="
M885.902283,506.990234 
	C893.550476,512.776306 895.522644,521.194458 895.806213,529.513550 
	C896.429260,547.792725 895.999451,566.107788 895.999451,584.703735 
	C891.404053,584.703735 886.999390,584.703735 882.000000,584.703735 
	C882.000000,582.882324 882.000000,580.953064 882.000000,579.023865 
	C882.000000,564.700989 882.363464,550.364014 881.810364,536.062500 
	C881.606384,530.790222 880.139343,525.111877 877.626648,520.502869 
	C874.705627,515.144714 868.515442,513.978394 862.884155,515.216858 
	C855.547913,516.830200 850.813843,521.930603 849.078857,529.320984 
	C848.342407,532.458069 848.067993,535.764954 848.045898,538.997803 
	C847.942444,554.133362 848.000000,569.269958 848.000000,584.702698 
	C843.071899,584.702698 838.334656,584.702698 833.296387,584.702698 
	C833.296387,558.412842 833.296387,532.020569 833.296387,505.271576 
	C834.403320,505.188782 835.664368,505.020813 836.926514,505.011810 
	C846.249451,504.945190 846.249512,504.955109 847.560547,514.665833 
	C851.987488,508.120605 857.794067,503.825134 864.912903,503.228790 
	C871.867249,502.646210 879.502136,501.179535 885.902283,506.990234 
z"/>
<path fill="#FFFFFF" opacity="1.000000" stroke="none" 
	d="
M569.139282,583.983643 
	C563.248352,582.735779 560.996338,579.571289 561.903687,573.816345 
	C562.432739,570.460693 562.000000,566.953430 562.000000,562.975525 
	C569.308289,568.669250 576.489746,573.086548 585.490967,574.272522 
	C598.707336,576.013733 606.714661,571.415833 606.904358,559.000244 
	C607.248474,536.479980 607.001953,513.950684 607.001953,491.021942 
	C598.894287,491.021942 590.149292,491.021942 581.207825,491.021942 
	C581.207825,486.554504 581.207825,482.484131 581.207825,478.206360 
	C595.114136,478.206360 608.850220,478.206360 623.000000,478.206360 
	C623.000000,488.490692 623.000000,498.606964 623.000000,508.723236 
	C623.000000,524.884949 623.102539,541.047546 622.959106,557.207947 
	C622.880737,566.032410 621.140808,574.677673 613.838501,580.366455 
	C609.832458,583.487305 604.566589,586.275757 599.658081,586.684509 
	C589.616089,587.520813 579.283936,588.143433 569.139282,583.983643 
z"/>
<path fill="#FFFFFF" opacity="1.000000" stroke="none" 
	d="
M894.000000,700.150757 
	C895.893372,716.900818 881.933594,726.493835 867.566040,727.041443 
	C856.523254,727.462280 845.750732,726.357605 835.149902,722.470398 
	C835.149902,717.861084 835.149902,713.068665 835.149902,708.363403 
	C841.558838,710.489136 847.751099,713.357544 854.243591,714.464050 
	C860.547852,715.538513 867.289795,716.448181 873.479126,713.006042 
	C877.841309,710.580139 880.408630,706.970093 879.921326,701.957764 
	C879.435303,696.957031 875.523682,694.456238 871.306274,693.089905 
	C865.067993,691.068787 858.608215,689.742004 852.280945,687.982239 
	C845.025146,685.964172 838.455261,682.509888 836.148132,674.890015 
	C833.353210,665.658875 834.557495,656.453308 842.034546,649.827881 
	C845.798340,646.492859 851.251587,643.794617 856.185242,643.313171 
	C866.572998,642.299561 877.227173,642.122192 887.255493,646.149841 
	C888.481140,646.642090 889.733887,648.580017 889.876343,649.961182 
	C890.244934,653.534790 889.999878,657.171692 889.999878,661.717468 
	C880.687195,655.578918 871.006104,654.133240 860.940613,655.041565 
	C852.717285,655.783691 846.128906,662.737610 851.161682,670.796875 
	C852.660217,673.196594 856.023254,674.960876 858.895020,675.871216 
	C866.363586,678.238647 874.156799,679.598083 881.590759,682.054626 
	C890.026001,684.841919 893.894714,690.868286 894.000000,700.150757 
z"/>
<path fill="#FFFFFF" opacity="1.000000" stroke="none" 
	d="
M781.633179,708.154358 
	C783.689819,712.548157 786.844666,714.176392 791.272034,714.040039 
	C796.720093,713.872192 802.177246,714.000000 807.810181,714.000000 
	C807.810181,718.021240 807.810181,721.643616 807.810181,726.462036 
	C798.455200,725.927246 788.731628,726.586853 779.642212,724.493286 
	C771.362610,722.586182 767.627930,714.673401 766.104187,706.572998 
	C765.202087,701.776978 765.067993,696.787842 765.045410,691.883484 
	C764.942017,669.425415 765.000000,646.966614 765.000000,624.110596 
	C757.987549,624.110596 751.241760,624.110596 744.253113,624.110596 
	C744.253113,620.317627 744.253113,616.913147 744.253113,613.251648 
	C755.680969,613.251648 767.084778,613.251648 779.000000,613.251648 
	C779.000000,614.881897 779.000000,616.488159 779.000000,618.094421 
	C779.000000,644.082214 778.901733,670.070801 779.104797,696.057007 
	C779.135620,700.002686 780.565491,703.937378 781.633179,708.154358 
z"/>
<path fill="#000000" opacity="1.000000" stroke="none" 
	d="
M209.000000,664.000000 
	C209.000000,617.196472 209.000000,570.893005 209.000000,524.294922 
	C292.929016,524.294922 376.655243,524.294922 460.770844,524.294922 
	C460.841888,525.580566 460.989868,527.011353 460.990112,528.442078 
	C461.001587,592.095398 461.001526,655.748657 460.997589,719.401978 
	C460.997192,725.938843 459.916748,726.997864 453.268250,726.998108 
	C374.451477,727.000977 295.634674,727.000916 216.817902,726.998413 
	C209.962021,726.998169 209.002075,726.009033 209.000961,718.988281 
	C208.998062,700.825500 209.000000,682.662781 209.000000,664.000000 
M393.000000,665.420776 
	C392.666687,676.833740 392.463226,688.252808 391.931641,699.656555 
	C391.737793,703.815186 392.618042,707.948364 396.637878,708.506531 
	C399.258301,708.870361 402.852478,706.314087 405.133972,704.144348 
	C409.439636,700.049438 413.112976,695.289673 417.316528,690.501648 
	C420.267487,696.749023 422.836121,702.615356 425.831604,708.254883 
	C426.675903,709.844482 428.651154,711.610779 430.314178,711.847900 
	C436.228302,712.691345 438.801270,708.611206 436.232971,702.765564 
	C433.658783,696.906555 430.895233,691.130676 428.067810,685.000000 
	C435.287659,685.000000 442.105072,685.321106 448.861664,684.820618 
	C451.135498,684.652222 454.407532,682.837708 455.122467,680.970886 
	C455.847076,679.078857 454.540527,675.768311 453.100342,673.845581 
	C451.183411,671.286316 448.327637,669.405762 445.787140,667.342102 
	C431.889679,656.053223 417.917358,644.855652 404.093597,633.477478 
	C401.564026,631.395386 398.939911,629.979004 396.357483,632.151062 
	C394.667084,633.572815 393.239594,636.272095 393.148254,638.459900 
	C392.787170,647.106750 393.000000,655.777649 393.000000,665.420776 
M286.999969,610.500061 
	C283.659332,607.258972 280.318726,604.017883 276.989502,600.787903 
	C277.860138,599.434692 278.368561,598.202393 279.245850,597.349487 
	C288.028259,588.811340 296.946869,580.411987 305.650787,571.795349 
	C308.226990,569.244934 309.496338,565.787415 306.898132,562.579102 
	C304.695190,559.858826 299.996368,560.559082 296.961823,563.510193 
	C287.375793,572.832520 277.722748,582.086609 268.202301,591.475281 
	C262.652954,596.947815 261.549835,600.833313 264.288391,604.640991 
	C265.270874,606.007019 266.803131,606.965820 268.010712,608.183594 
	C277.838501,618.094360 287.577942,628.094116 297.505646,637.903564 
	C300.666260,641.026489 304.321991,640.809753 306.844086,637.543701 
	C309.244934,634.434753 308.301117,631.613403 305.543304,628.953308 
	C299.437378,623.063721 293.503845,616.995422 286.999969,610.500061 
M363.419006,564.052429 
	C360.409241,568.269287 362.119263,571.645630 365.286438,574.809875 
	C374.311066,583.826172 383.315216,592.862915 392.540283,602.104919 
	C383.458862,611.143127 374.732239,619.816772 366.024689,628.509460 
	C364.981049,629.551270 363.755005,630.552063 363.110992,631.823853 
	C361.657806,634.693665 360.600220,638.135010 363.882935,640.144409 
	C366.453461,641.717834 369.618073,641.942627 372.344086,639.173157 
	C383.201080,628.142822 394.196899,617.249084 405.144806,606.308289 
	C407.975525,603.479370 407.971527,600.550049 405.212982,597.773132 
	C393.923981,586.408752 382.556030,575.122742 371.271759,563.753662 
	C368.829041,561.292603 366.516266,561.100220 363.419006,564.052429 
M326.032776,605.716125 
	C325.473358,607.208984 324.979279,608.730347 324.343231,610.189758 
	C321.532410,616.639465 318.689362,623.075195 315.840820,629.508423 
	C313.941010,633.798950 316.713745,635.817810 319.880859,637.337585 
	C323.336517,638.995911 325.681763,636.710693 326.900665,634.039001 
	C335.726227,614.694946 344.454285,595.303833 352.898285,575.791321 
	C353.906036,573.462646 354.029449,569.701843 352.800903,567.670471 
	C350.138763,563.268494 345.356537,564.314880 342.767181,569.749634 
	C337.191864,581.451660 331.866669,593.272827 326.032776,605.716125 
z"/>
<path fill="#000000" opacity="1.000000" stroke="none" 
	d="
M210.226715,511.969788 
	C209.495956,510.373413 209.047501,508.805054 209.033600,507.232849 
	C208.961380,499.069031 208.994598,490.904266 209.001678,482.739807 
	C209.007462,476.084351 210.059402,475.003662 216.589081,475.002502 
	C247.747284,474.996948 278.905487,475.000000 310.063690,475.000000 
	C357.717407,475.000000 405.371155,474.998993 453.024872,475.001068 
	C460.014404,475.001343 460.994476,475.967468 460.998566,482.853638 
	C461.004211,492.343170 461.000000,501.832703 461.000000,511.996063 
	C377.494049,511.996063 294.101776,511.996063 210.226715,511.969788 
M303.217865,502.977936 
	C310.155334,498.982788 309.016998,488.449371 303.856506,484.418793 
	C299.310883,480.868469 292.122589,481.446960 288.279022,485.364197 
	C284.237152,489.483398 284.133667,495.844086 288.021423,501.200531 
	C291.124268,505.475739 296.764679,506.213654 303.217865,502.977936 
M258.158325,483.310516 
	C257.545990,483.862305 256.957855,484.444122 256.317352,484.961029 
	C252.361038,488.153961 251.233795,492.293945 252.993835,497.244049 
	C254.827209,502.400421 258.651459,505.351929 263.869659,504.928864 
	C268.563721,504.548248 272.334778,502.785553 274.199951,497.650055 
	C275.942780,492.851379 274.851776,488.884888 271.845154,485.515015 
	C268.376099,481.626770 263.763031,481.114532 258.158325,483.310516 
M240.124237,500.319702 
	C240.632187,499.173035 241.257141,498.062744 241.626724,496.873108 
	C242.862900,492.894073 240.946976,486.609406 237.905212,484.395355 
	C233.222366,480.986786 227.913300,481.198578 223.168488,484.983154 
	C219.468567,487.934296 218.313400,492.596680 219.991882,497.403687 
	C222.733749,505.256042 232.130508,508.165680 240.124237,500.319702 
z"/>
<path fill="#000000" opacity="1.000000" stroke="none" 
	d="
M692.997070,677.000000 
	C684.208374,677.000000 675.918884,677.000000 667.685425,677.000000 
	C665.336060,669.510132 674.367126,656.184509 684.872498,655.033386 
	C700.396423,653.332275 707.851929,661.356995 708.868835,677.000000 
	C703.730225,677.000000 698.613220,677.000000 692.997070,677.000000 
z"/>
<path fill="#000000" opacity="1.000000" stroke="none" 
	d="
M938.154175,677.000000 
	C936.202942,677.000000 934.732666,677.000000 933.302734,677.000000 
	C932.495361,666.699890 941.815735,655.811707 951.778870,654.957947 
	C967.066711,653.647766 973.848083,662.226013 974.929993,677.000000 
	C962.813171,677.000000 950.724121,677.000000 938.154175,677.000000 
z"/>
<path fill="#000000" opacity="1.000000" stroke="none" 
	d="
M704.989868,560.639465 
	C702.510620,566.414490 699.997559,571.971130 693.874695,573.916016 
	C683.654602,577.162354 674.001099,574.414368 669.810852,562.214294 
	C665.569702,549.866394 665.377808,537.354858 671.013184,525.270569 
	C674.833191,517.079041 681.011597,513.951660 690.118042,515.001709 
	C696.578674,515.746704 703.191528,522.123840 704.988525,529.355286 
	C707.544983,539.643433 707.811584,549.934143 704.989868,560.639465 
z"/>
<path fill="#FFFFFF" opacity="1.000000" stroke="none" 
	d="
M393.000000,664.930176 
	C393.000000,655.777649 392.787170,647.106750 393.148254,638.459900 
	C393.239594,636.272095 394.667084,633.572815 396.357483,632.151062 
	C398.939911,629.979004 401.564026,631.395386 404.093597,633.477478 
	C417.917358,644.855652 431.889679,656.053223 445.787140,667.342102 
	C448.327637,669.405762 451.183411,671.286316 453.100342,673.845581 
	C454.540527,675.768311 455.847076,679.078857 455.122467,680.970886 
	C454.407532,682.837708 451.135498,684.652222 448.861664,684.820618 
	C442.105072,685.321106 435.287659,685.000000 428.067810,685.000000 
	C430.895233,691.130676 433.658783,696.906555 436.232971,702.765564 
	C438.801270,708.611206 436.228302,712.691345 430.314178,711.847900 
	C428.651154,711.610779 426.675903,709.844482 425.831604,708.254883 
	C422.836121,702.615356 420.267487,696.749023 417.316528,690.501648 
	C413.112976,695.289673 409.439636,700.049438 405.133972,704.144348 
	C402.852478,706.314087 399.258301,708.870361 396.637878,708.506531 
	C392.618042,707.948364 391.737793,703.815186 391.931641,699.656555 
	C392.463226,688.252808 392.666687,676.833740 393.000000,664.930176 
M404.000153,674.708984 
	C404.000153,678.380981 404.000153,682.052979 404.000153,686.710022 
	C406.012024,684.599304 407.274109,683.494324 408.274536,682.188843 
	C413.250458,675.695557 419.369354,672.146912 427.880341,673.900085 
	C428.872528,674.104431 430.140961,672.967651 432.148682,672.060852 
	C422.755249,664.447510 414.286896,657.583923 405.537384,650.492493 
	C404.990875,658.780579 404.496796,666.273804 404.000153,674.708984 
z"/>
<path fill="#FFFFFF" opacity="1.000000" stroke="none" 
	d="
M287.250000,610.750000 
	C293.503845,616.995422 299.437378,623.063721 305.543304,628.953308 
	C308.301117,631.613403 309.244934,634.434753 306.844086,637.543701 
	C304.321991,640.809753 300.666260,641.026489 297.505646,637.903564 
	C287.577942,628.094116 277.838501,618.094360 268.010712,608.183594 
	C266.803131,606.965820 265.270874,606.007019 264.288391,604.640991 
	C261.549835,600.833313 262.652954,596.947815 268.202301,591.475281 
	C277.722748,582.086609 287.375793,572.832520 296.961823,563.510193 
	C299.996368,560.559082 304.695190,559.858826 306.898132,562.579102 
	C309.496338,565.787415 308.226990,569.244934 305.650787,571.795349 
	C296.946869,580.411987 288.028259,588.811340 279.245850,597.349487 
	C278.368561,598.202393 277.860138,599.434692 276.989502,600.787903 
	C280.318726,604.017883 283.659332,607.258972 287.250000,610.750000 
z"/>
<path fill="#FFFFFF" opacity="1.000000" stroke="none" 
	d="
M363.711334,563.772095 
	C366.516266,561.100220 368.829041,561.292603 371.271759,563.753662 
	C382.556030,575.122742 393.923981,586.408752 405.212982,597.773132 
	C407.971527,600.550049 407.975525,603.479370 405.144806,606.308289 
	C394.196899,617.249084 383.201080,628.142822 372.344086,639.173157 
	C369.618073,641.942627 366.453461,641.717834 363.882935,640.144409 
	C360.600220,638.135010 361.657806,634.693665 363.110992,631.823853 
	C363.755005,630.552063 364.981049,629.551270 366.024689,628.509460 
	C374.732239,619.816772 383.458862,611.143127 392.540283,602.104919 
	C383.315216,592.862915 374.311066,583.826172 365.286438,574.809875 
	C362.119263,571.645630 360.409241,568.269287 363.711334,563.772095 
z"/>
<path fill="#FFFFFF" opacity="1.000000" stroke="none" 
	d="
M326.235931,605.380676 
	C331.866669,593.272827 337.191864,581.451660 342.767181,569.749634 
	C345.356537,564.314880 350.138763,563.268494 352.800903,567.670471 
	C354.029449,569.701843 353.906036,573.462646 352.898285,575.791321 
	C344.454285,595.303833 335.726227,614.694946 326.900665,634.039001 
	C325.681763,636.710693 323.336517,638.995911 319.880859,637.337585 
	C316.713745,635.817810 313.941010,633.798950 315.840820,629.508423 
	C318.689362,623.075195 321.532410,616.639465 324.343231,610.189758 
	C324.979279,608.730347 325.473358,607.208984 326.235931,605.380676 
z"/>
<path fill="#FFFFFF" opacity="1.000000" stroke="none" 
	d="
M302.822388,503.031586 
	C296.764679,506.213654 291.124268,505.475739 288.021423,501.200531 
	C284.133667,495.844086 284.237152,489.483398 288.279022,485.364197 
	C292.122589,481.446960 299.310883,480.868469 303.856506,484.418793 
	C309.016998,488.449371 310.155334,498.982788 302.822388,503.031586 
z"/>
<path fill="#FFFFFF" opacity="1.000000" stroke="none" 
	d="
M258.540771,483.165527 
	C263.763031,481.114532 268.376099,481.626770 271.845154,485.515015 
	C274.851776,488.884888 275.942780,492.851379 274.199951,497.650055 
	C272.334778,502.785553 268.563721,504.548248 263.869659,504.928864 
	C258.651459,505.351929 254.827209,502.400421 252.993835,497.244049 
	C251.233795,492.293945 252.361038,488.153961 256.317352,484.961029 
	C256.957855,484.444122 257.545990,483.862305 258.540771,483.165527 
z"/>
<path fill="#FFFFFF" opacity="1.000000" stroke="none" 
	d="
M239.867691,500.622803 
	C232.130508,508.165680 222.733749,505.256042 219.991882,497.403687 
	C218.313400,492.596680 219.468567,487.934296 223.168488,484.983154 
	C227.913300,481.198578 233.222366,480.986786 237.905212,484.395355 
	C240.946976,486.609406 242.862900,492.894073 241.626724,496.873108 
	C241.257141,498.062744 240.632187,499.173035 239.867691,500.622803 
z"/>
<path fill="#000000" opacity="1.000000" stroke="none" 
	d="
M404.001434,674.238037 
	C404.496796,666.273804 404.990875,658.780579 405.537384,650.492493 
	C414.286896,657.583923 422.755249,664.447510 432.148682,672.060852 
	C430.140961,672.967651 428.872528,674.104431 427.880341,673.900085 
	C419.369354,672.146912 413.250458,675.695557 408.274536,682.188843 
	C407.274109,683.494324 406.012024,684.599304 404.000153,686.710022 
	C404.000153,682.052979 404.000153,678.380981 404.001434,674.238037 
z"/>
</svg>